<svg viewBox="0 0 32 32" xmlns="http://www.w3.org/2000/svg"><g data-name="Layer 2"><path d="M26 29H6a1 1 0 0 1-1-1V4a1 1 0 0 1 1-1h14a1 1 0 0 1 .71.29l6 6A1 1 0 0 1 27 10v18a1 1 0 0 1-1 1ZM7 27h18V10.41L19.59 5H7Z" fill="#ffffff" class="fill-000000"></path><path d="M26 11h-6a1 1 0 0 1-1-1V4a1 1 0 0 1 .62-.92 1 1 0 0 1 1.09.21l6 6a1 1 0 0 1 .21 1.09A1 1 0 0 1 26 11Zm-5-2h2.59L21 6.41ZM26 24H6a1 1 0 0 1 0-2h20a1 1 0 0 1 0 2ZM16 14h-6a1 1 0 0 1 0-2h6a1 1 0 0 1 0 2ZM21 18H10a1 1 0 0 1 0-2h11a1 1 0 0 1 0 2Z" fill="#ffffff" class="fill-000000"></path></g><path d="M0 0h32v32H0z" fill="none"></path></svg>